PathFileType	4	(X/Y/Z)	C:/Users/beibeiliu/ov580/test_trc/User3\out7_training_dense_right.trc
DataRate	CameraRate	NumFrames	NumMarkers	Units	OrigDataRate	OrigDataStartFrame	OrigNumFrames
120	120	18	19	mm	120	313	500
Frame#	Time	ThumbCMC			ThumbMCP			ThumbIP			ThumbTip			IndexMCP			IndexPIP			IndexTip			MiddleMCP			MiddlePIP			MiddleTip			RingMCP			RingPIP			RingTip			PinkyMCP			PinkyPIP			PinkyTip			BackHand1			BackHand2			BackHand3	
		X0	Y0	Z0	X1	Y1	Z1	X2	Y2	Z2	X3	Y3	Z3	X4	Y4	Z4	X5	Y5	Z5	X6	Y6	Z6	X7	Y7	Z7	X8	Y8	Z8	X9	Y9	Z9	X10	Y10	Z10	X11	Y11	Z11	X12	Y12	Z12	X13	Y13	Z13	X14	Y14	Z14	X15	Y15	Z15	X16	Y16	Z16	X17	Y17	Z17	X18	Y18	Z18	
312	2.6	199.729	68.6494	34.3896	204.396	78.6628	2.27321	213.39	86.426	-27.9929	227.671	70.3315	-47.6287	268.532	83.4089	-4.73264	266.443	84.2606	-36.8896	239.183	78.1759	-47.8318	275.5	64.1337	-10.6716	267.241	66.401	-44.0749	230.655	56.7877	-48.6715	273.567	40.7271	-13.7893	262.237	41.9949	-40.7899	226.995	40.2532	-42.5274	265.788	22.105	-8.24855	257.644	25.7065	-33.8915	226.903	23.8628	-41.9834	252.22	25.3544	42.676	231.856	21.5695	59.6174	234.61	58.2518	53.5951	
313	2.60833	196.141	60.9597	25.0031	190.512	66.8264	-8.42288	195.806	67.0963	-39.011	208.089	49.8201	-60.4626	254.914	69.4371	-20.898	246.389	70.2778	-54.2925	218.916	57.1209	-58.6621	265.015	48.8909	-27.2509	250.351	45.3986	-56.9202	213.241	34.5951	-54.6464	262.482	26.6993	-20.9514	247.728	22.0781	-49.4161	214.351	17.9867	-44.8497	257.6	8.8252	-15.7252	243.315	8.82424	-40.184	214.853	3.4442	-40.3901	250.204	27.5595	32.2629	231.6	16.9817	60.0845	230.519	53.8082	43.4283	
314	2.61667	176.548	53.7149	18.4694	168.967	46.3503	-13.581	172.056	37.1553	-47.1377	179.843	18.8954	-63.7556	228.695	54.3591	-44.8469	216.358	44.5577	-71.3015	189.729	26.1201	-65.4836	239.571	33.6006	-44.1555	218.661	18.9619	-69.4927	190.566	3.65278	-54.9134	241.063	12.0728	-34.9126	221.821	0.769479	-54.9312	189.801	-3.54431	-40.2351	239.442	-2.52338	-20.1229	221.9	-13.1625	-40.5083	193.255	-12.5111	-33.1732	241.278	22.9117	20.836	225.977	24.6359	48.3103	216.598	53.6772	27.9767	
315	2.625	167.323	46.6346	16.4544	151.54	36.3714	-13.4991	147.141	22.3992	-42.0322	149.623	1.32698	-60.4613	205.091	35.8506	-53.3729	190.727	20.2159	-75.5859	158.896	5.95418	-62.5958	214.722	17.9352	-52.0556	191.972	-3.53207	-70.3438	162.644	-9.40317	-49.2248	217.96	-5.25219	-43.0393	195.48	-18.3901	-53.1472	166.751	-16.0806	-30.7118	218.481	-18.9882	-27.7326	194.495	-27.5386	-35.9767	169.636	-23.8638	-15.6806	229.517	19.0102	10.2132	219.987	21.7189	42.1443	209.273	48.877	16.3433	
316	2.63333	161.717	48.1694	16.5212	141.659	35.0372	-10.5981	126.968	22.8574	-32.7667	126.344	-3.25665	-48.5688	181.956	24.3948	-58.9278	157.963	9.56223	-73.171	134.555	-0.499631	-54.9994	188.581	5.25228	-55.9786	164.114	-11.4513	-66.5981	138.052	-16.003	-35.9319	190.499	-15.0457	-42.2547	163.805	-29.4197	-44.9941	144.781	-21.0295	-15.0141	190.97	-29.3985	-26.1916	167.409	-36.209	-28.0645	147.642	-25.036	-2.59728	216.781	9.4721	8.61522	216.256	16.7278	39.2286	201.531	43.6957	9.40132	
317	2.64167	157.686	47.8794	16.6138	129.077	42.5373	-5.85289	109.105	27.1047	-26.1742	107.85	2.70788	-30.8854	160.747	16.7363	-55.0981	133.988	6.5098	-65.7287	109.118	5.97096	-46.1701	161.08	-5.52154	-53.5398	130.8	-15.4054	-53.347	114.086	-8.69541	-18.8291	163.973	-17.8926	-35.4159	130.673	-28.4313	-31.5865	121.668	-12.2755	-2.82778	163.16	-35.1193	-18.0908	135.561	-33.6672	-14.5619	127.505	-15.3069	7.68558	202.163	-4.013	1.79654	208.609	5.64079	32.7906	193.687	33.7072	6.31208	
318	2.65	155.108	49.6313	19.0626	124.691	50.6725	6.94808	98.4724	37.5165	-10.9773	87.9796	15.8346	-14.1026	138.828	15.0903	-46.684	106.519	10.1617	-51.7069	86.0001	16.0881	-27.2105	133.773	-6.02788	-43.0238	102.713	-4.65011	-40.552	92.7257	5.39399	-1.14681	135.618	-20.0571	-25.1784	102.315	-17.1697	-18.0518	100.556	0.406037	11.0254	134.414	-33.5026	-7.54023	108.936	-28.1391	2.8822	109.326	-5.50439	23.3177	182.287	-6.33031	3.412	194.236	-0.77313	30.4289	184.38	24.5557	6.68575	
319	2.65833	155.093	53.6037	28.3608	121.47	57.2265	14.9821	92.4121	53.1963	2.64356	73.9349	33.4698	1.00356	122.055	20.228	-35.2293	90.167	21.8895	-39.8215	71.5784	35.4437	-12.2988	113.958	4.35283	-31.4693	79.7808	9.37708	-22.2601	78.2092	21.3462	11.5519	109.496	-10.6415	-16.8445	83.0327	-8.35207	-1.84428	88.277	10.2794	28.3452	114.839	-25.4869	4.75924	91.4522	-15.5392	16.108	96.0006	3.73463	37.1265	164.939	-9.82852	5.93902	184.724	-7.79337	33.2896	175.217	22.2494	9.48442	
320	2.66667	150.553	54.2636	29.8248	120.628	64.0194	25.3171	90.3185	62.1696	17.509	68.7551	45.551	16.2678	105.482	25.7283	-24.5006	73.5358	34.8963	-25.0128	61.3468	45.3327	2.46175	93.7176	11.7474	-19.8901	66.032	20.2273	-7.57895	70.6726	33.0221	30.0569	93.1309	-6.59332	-1.53178	69.7385	2.60026	16.1925	79.1696	20.1944	44.1537	100.439	-16.012	14.9277	79.6875	-4.56478	29.4268	90.9417	13.1489	54.5141	151.431	-7.93417	11.5169	173.334	-8.32332	35.5357	168.051	23.5196	13.3165	
321	2.675	149.072	55.9739	38.4282	118.369	68.5358	33.838	85.5913	70.9174	28.4213	63.2172	51.5031	30.7585	93.7851	32.1433	-13.107	60.3572	39.2786	-6.79036	54.082	52.9487	18.4492	79.4776	13.6186	-4.76161	55.1937	24.6424	10.9865	63.3973	37.1511	47.0746	83.316	3.28981	10.3514	59.6895	11.7213	31.1774	70.493	26.7977	54.8659	84.7862	-9.25327	28.6248	70.8483	2.71567	46.8805	87.8431	19.5925	67.1363	141.028	-8.12417	16.5906	164.575	-8.82022	34.9863	155.657	20.0744	16.6876	
322	2.68333	142.886	55.8632	39.001	113.275	66.427	38.458	81.2512	71.4918	36.5859	63.2353	55.6673	41.4579	85.4138	31.7871	-3.81472	52.06	42.7385	2.44023	48.0571	52.2833	30.2728	71.2494	19.6138	3.2185	46.7992	31.3088	21.6629	60.1378	44.2809	58.3781	71.9029	3.90419	20.9685	54.3391	16.5202	43.7154	69.4856	31.3031	67.5656	76.6412	-10.2959	39.5614	66.9518	6.12265	54.9083	86.8982	20.6285	77.7497	129.931	-11.9617	21.6912	155.86	-11.7954	36.4451	150.486	19.0855	21.0491	
323	2.69167	142.127	54.4336	41.2722	110.207	67.3121	39.7733	83.5032	71.5775	41.4359	58.442	56.9974	45.9993	79.1153	32.9317	-2.68366	48.1466	41.2506	7.5732	47.0375	56.1348	37.1643	69.9171	16.9857	7.06531	43.9085	33.5631	27.151	55.1814	45.1733	58.9109	71.6628	3.27455	24.0599	52.1118	20.1039	45.5356	66.1276	29.8616	71.677	74.5895	-8.80087	42.7288	65.0365	10.1762	59.4809	83.7437	23.9037	80.6902	127.921	-7.255	21.0373	153.587	-9.37266	35.3829	149.403	21.4515	19.2893	
324	2.7	139.354	55.6051	40.3906	108.867	71.6617	39.384	80.7699	72.5097	41.9733	57.5018	59.3892	47.2943	78.1715	37.0285	-2.15032	46.6513	47.3033	8.73754	46.1509	59.1782	40.4111	67.3786	21.3454	8.09145	42.6832	35.8284	28.5667	53.2283	47.0586	58.7771	68.7785	6.31125	25.1531	50.105	17.0988	47.3434	64.6323	34.1491	71.9657	73.5289	-3.20176	42.0391	64.597	11.244	62.7646	80.7478	23.7626	79.3618	125.731	-9.20767	26.1216	151.414	-9.55998	37.5696	142.842	23.0631	18.9088	
325	2.70833	144.432	57.2206	42.7558	112.106	74.1192	40.748	82.5404	78.4343	41.4036	58.1341	62.9196	46.1346	78.0389	41.8879	-2.78286	49.9343	47.7888	6.9376	47.2158	61.725	36.524	67.6021	26.8497	7.50868	44.3255	40.0896	27.0707	55.0429	49.4559	59.2673	70.5126	12.4962	23.716	51.2902	23.8566	42.9678	67.4865	35.8594	72.7128	72.4845	-1.81524	43.5472	64.2885	15.9838	62.0756	86.2881	29.0028	78.6553	124.729	-4.95438	23.6049	149.808	-8.4102	38.4014	144.77	25.6772	18.564	
326	2.71667	148.886	60.0901	42.4342	115.55	74.5882	39.187	85.0261	79.0583	35.8633	64.9806	65.9652	40.7959	81.3382	40.7983	-4.14482	54.4791	51.5134	2.14388	50.5182	69.0347	29.2131	73.8748	27.716	4.02528	46.7247	42.7821	23.5421	58.3784	55.6595	56.407	74.2888	13.9253	20.4967	51.4012	25.4001	40.8268	66.5574	39.963	67.3963	72.8873	1.45312	38.754	65.1995	20.5837	58.1623	81.946	31.4906	76.3672	127.738	-1.34837	22.8935	153.076	-9.15441	39.6668	149.852	21.914	21.9325	
327	2.725	148.965	55.5102	38.5071	124.163	79.0484	34.591	95.7724	82.7387	30.5115	68.997	70.2717	31.7066	93.3178	45.4195	-12.6201	62.4341	57.3782	-7.88364	57.3657	75.7259	19.9774	77.1888	30.2751	-3.65089	53.6616	47.8055	8.17289	63.2357	59.5644	46.8216	74.6573	16.6337	13.2817	55.7428	34.4256	27.134	68.127	46.4729	56.4162	75.794	4.81644	30.9092	64.7967	23.3626	47.9404	87.0229	35.4861	66.8218	128.638	-5.25192	21.5852	154.508	-6.70639	36.7903	151.86	21.3676	17.9552	
328	2.73333	155.563	56.3756	34.6092	129.139	74.652	25.9023	103.89	85.5339	18.2216	74.6627	80.9029	16.1712	105.418	48.0003	-23.327	75.0306	63.52	-23.2723	67.9602	80.4935	2.68581	88.1319	31.9365	-16.7141	63.4824	55.6966	-5.55267	67.6188	65.8833	29.3711	82.3498	23.5949	-2.58991	60.9742	36.6322	12.6512	74.2179	52.0876	43.6679	83.4608	9.48094	17.1141	69.0727	31.2352	31.6122	83.3458	40.4295	51.5546	134.286	-2.85566	17.3323	152.945	-9.47705	38.1492	157.494	22.003	16.1876	
329	2.74167	160.661	55.3231	30.0254	134.782	74.6376	17.5807	110.04	87.854	2.65609	85.2623	79.4233	-1.54364	118.864	43.9246	-33.0408	89.4246	63.9836	-39.7505	76.7902	80.5127	-13.3938	98.4937	32.8638	-30.8036	74.0355	54.773	-23.6157	76.5416	71.5976	10.0634	93.7253	18.3089	-12.845	67.9826	37.8131	-4.15265	74.6946	54.5307	20.5886	87.6997	7.84682	4.15327	69.7821	28.3875	14.7303	88.7378	40.4247	35.5486	140.777	-1.70006	11.7929	155.735	-9.9321	35.0821	167.958	20.8574	12.9576	
